<?xml version="1.0" encoding="utf-8"?>
<!-- Generator: Adobe Illustrator 19.1.0, SVG Export Plug-In . SVG Version: 6.00 Build 0)  -->
<svg version="1.1" id="Layer_1" xmlns="http://www.w3.org/2000/svg" xmlns:xlink="http://www.w3.org/1999/xlink" x="0px" y="0px"
	 viewBox="0 0 400 400"  xml:space="preserve">
<style type="text/css">
	.st0{fill:white;}
</style>
<g>
	<path class="st0" d="M152.1,194.4c-2-1.4-3.9-2.1-7-2.1c-3.3,0-5.1,1.2-7.1,2.6V192h-8v34h8v-22c2-2,2.9-2.9,5-2.9
		c1.5,0,2.3,0.3,2.3,0.3l0.5,0.2l6.8-6.8L152.1,194.4z"/>
	<path class="st0" d="M177,193.2c-3-0.8-3.9-1.2-6.3-1.2c-5.1,0-9.9,1.7-13.1,4.9c-3.3,3.2-5.1,7.7-5.1,12.7c0,4.9,1.4,9.1,4.2,12.1
		c2.8,3,7,4.6,11.6,4.6c3.3,0,5.8-1,8.8-3.1v2.7h9v-51.7l-9,9.3V193.2z M171,200.9c2,0,3,0.5,6,1.7v12.2c-2,1.2-3.9,2.9-7.1,2.9
		c-3.7,0-7.4-2.6-7.4-8.3C162.5,203.5,166.9,200.9,171,200.9z"/>
	<path class="st0" d="M266.5,192.1c-10.6,0-17.9,7.1-17.9,17.3c0,10.2,7.4,17.3,17.9,17.3c10.6,0,17.9-7.1,17.9-17.3
		C284.5,199.2,277.1,192.1,266.5,192.1z M266.5,217.9c-4.7,0-8-3.6-8-8.5c0-5,3.3-8.5,8-8.5c4.7,0,8.1,3.6,8.1,8.5
		C274.6,214.4,271.4,217.9,266.5,217.9z"/>
	<path class="st0" d="M313,193.2c-2-0.8-3.7-1.2-6.2-1.2c-5.1,0-9.8,1.7-13.1,4.9c-3.3,3.2-5.1,7.7-5.1,12.7c0,4.9,1.4,9.1,4.2,12.1
		c2.8,3,6.8,4.6,11.5,4.6c3.3,0,5.7-1,8.7-3.1v2.7h9v-51.7l-9,9.3V193.2z M307.2,200.9c2,0,3.8,0.5,5.8,1.7v12.2
		c-1,1.2-3.7,2.9-7,2.9c-3.7,0-7.4-2.6-7.4-8.3C298.6,203.5,303,200.9,307.2,200.9z"/>
	<path class="st0" d="M355.5,196.3c-2.9-2.7-6.8-4.2-11-4.2c-5.2,0-9.6,1.7-12.8,5.1c-3,3.1-4.7,7.5-4.7,12.2
		c0,10.3,7.1,17.3,17.7,17.3c6.4,0,9.5-1.6,13.3-4.9l0.5-0.4l-5.1-5.1l-0.4,0.3c-1.5,1.2-3.4,1.9-7.5,1.9c-4.7,0-8-2.5-8.8-6.5h22.7
		l0.1-0.2c0.4-1.3,0.5-2.4,0.5-4.5C360.1,202.9,358.4,199.1,355.5,196.3z M344.1,200.1c2.1,0,3.8,0.7,5,1.9c1,1,1.6,1.9,1.6,3.9
		h-14.3C337.5,202,340,200.1,344.1,200.1z"/>
	<path class="st0" d="M113,193.3c-2-0.5-4.2-1.3-5.9-1.3c-5.3,0-10.2,1.8-13.7,5c-3.4,3.2-5.3,7.5-5.3,12.3c0,5.1,1.5,9.4,4.4,12.5
		c2.9,3.1,7.3,4.8,12.1,4.8c3,0,5.5-1,8.5-2.7v2h9v-34h-9V193.3z M113,214.9c-2,1.4-4.2,3-7,3c-4.8,0-8-3.1-8-8.2
		c0-4.4,3-8.8,9.1-8.8c1.8,0,2.8,0.4,5.8,1.3V214.9z"/>
	<polygon class="st0" points="73,196 50,196 50,175 40,175 40,225.9 50,225.9 50,206 73,206 73,226 82,226 82,175 73,175 	"/>
	<path class="st0" d="M242.7,189.6c-1.3-3.2-3.2-5.9-5.6-8.3c-4.8-4.6-11.5-7.2-18.8-7.2c-7.4,0-14.2,2.7-19,7.6
		c-4.7,4.8-7.3,11.4-7.3,18.6c0,3.8,0.7,7.5,2,10.7c1.3,3.2,3.1,5.9,5.5,8.3c4.8,4.6,11.4,7.2,18.8,7.2c4.7,0,9-0.8,12.8-2.8
		l1.9,2.4h11.7l-6.6-7.8c4.3-4.7,6.6-11,6.6-17.8C244.7,196.5,244,192.9,242.7,189.6z M218.3,217.1c-9,0-16-7.4-16-16.8
		c0-9.7,6.7-16.8,16-16.8c9.3,0,16,7.1,16,16.8c0,3.8-1,7.4-2.8,10.3l-4.1-4.6h-11.9l9.1,10.1C222.7,216.9,220.6,217.1,218.3,217.1z
		"/>
</g>
</svg>
