<svg id="Слой_1" data-name="Слой 1" xmlns="http://www.w3.org/2000/svg" viewBox="0 0 320 52.6"><defs><style>.cls-1{fill:white;}</style></defs><title>Logo</title><path class="cls-1" d="M112.1,20.4a11,11,0,0,0-7-2.1c-3.3,0-5.1,1.2-7.1,2.6V18H90V52h8V30c2-2,2.9-2.9,5-2.9a7.16,7.16,0,0,1,2.3.3l.5.2,6.8-6.8Z" transform="translate(0 -0.1)"/><path class="cls-1" d="M137,19.2c-3-.8-3.9-1.2-6.3-1.2-5.1,0-9.9,1.7-13.1,4.9a17.42,17.42,0,0,0-5.1,12.7c0,4.9,1.4,9.1,4.2,12.1a15.67,15.67,0,0,0,11.6,4.6c3.3,0,5.8-1,8.8-3.1v2.7h9V.2l-9,9.3v9.7Zm-6,7.7c2,0,3,.5,6,1.7V40.8c-2,1.2-3.9,2.9-7.1,2.9-3.7,0-7.4-2.6-7.4-8.3C122.5,29.5,126.9,26.9,131,26.9Z" transform="translate(0 -0.1)"/><path class="cls-1" d="M226.5,18.1c-10.6,0-17.9,7.1-17.9,17.3s7.4,17.3,17.9,17.3,17.9-7.1,17.9-17.3S237.1,18.1,226.5,18.1Zm0,25.8c-4.7,0-8-3.6-8-8.5s3.3-8.5,8-8.5,8.1,3.6,8.1,8.5S231.4,43.9,226.5,43.9Z" transform="translate(0 -0.1)"/><path class="cls-1" d="M273,19.2a15.24,15.24,0,0,0-6.2-1.2,18.64,18.64,0,0,0-13.1,4.9,17.42,17.42,0,0,0-5.1,12.7c0,4.9,1.4,9.1,4.2,12.1a15.28,15.28,0,0,0,11.5,4.6c3.3,0,5.7-1,8.7-3.1v2.7h9V.2l-9,9.3Zm-5.8,7.7a10.77,10.77,0,0,1,5.8,1.7V40.8a9.75,9.75,0,0,1-7,2.9c-3.7,0-7.4-2.6-7.4-8.3C258.6,29.5,263,26.9,267.2,26.9Z" transform="translate(0 -0.1)"/><path class="cls-1" d="M315.5,22.3a16,16,0,0,0-11-4.2c-5.2,0-9.6,1.7-12.8,5.1A17.51,17.51,0,0,0,287,35.4c0,10.3,7.1,17.3,17.7,17.3,6.4,0,9.5-1.6,13.3-4.9l.5-.4-5.1-5.1-.4.3c-1.5,1.2-3.4,1.9-7.5,1.9-4.7,0-8-2.5-8.8-6.5h22.7l.1-.2a13.94,13.94,0,0,0,.5-4.5A14.55,14.55,0,0,0,315.5,22.3Zm-11.4,3.8a6.87,6.87,0,0,1,5,1.9,4.75,4.75,0,0,1,1.6,3.9H296.4C297.5,28,300,26.1,304.1,26.1Z" transform="translate(0 -0.1)"/><path class="cls-1" d="M73,19.3c-2-.5-4.2-1.3-5.9-1.3a20.23,20.23,0,0,0-13.7,5,16.62,16.62,0,0,0-5.3,12.3c0,5.1,1.5,9.4,4.4,12.5a16.42,16.42,0,0,0,12.1,4.8c3,0,5.5-1,8.5-2.7v2h9v-34h-9v1.4Zm0,21.6c-2,1.4-4.2,3-7,3-4.8,0-8-3.1-8-8.2,0-4.4,3-8.8,9.1-8.8,1.8,0,2.8.4,5.8,1.3V40.9Z" transform="translate(0 -0.1)"/><polygon class="cls-1" points="33 21.9 10 21.9 10 0.9 0 0.9 0 51.8 10 51.8 10 31.9 33 31.9 33 51.9 42 51.9 42 0.9 33 0.9 33 21.9"/><path class="cls-1" d="M202.7,15.6a24.84,24.84,0,0,0-5.6-8.3A27,27,0,0,0,178.3.1a26.33,26.33,0,0,0-19,7.6A26.32,26.32,0,0,0,152,26.3,28.7,28.7,0,0,0,154,37a24.57,24.57,0,0,0,5.5,8.3,29.06,29.06,0,0,0,31.6,4.4l1.9,2.4h11.7l-6.6-7.8a26.11,26.11,0,0,0,6.6-17.8A29.37,29.37,0,0,0,202.7,15.6ZM178.3,43.1c-9,0-16-7.4-16-16.8,0-9.7,6.7-16.8,16-16.8s16,7.1,16,16.8a19.6,19.6,0,0,1-2.8,10.3L187.4,32H175.5l9.1,10.1A16,16,0,0,1,178.3,43.1Z" transform="translate(0 -0.1)"/></svg>